<?xml version="1.0" encoding="utf-8"?>
<!-- Generator: Adobe Illustrator 22.1.0, SVG Export Plug-In . SVG Version: 6.00 Build 0)  -->
<svg version="1.1" id="Layer_1" xmlns="http://www.w3.org/2000/svg" xmlns:xlink="http://www.w3.org/1999/xlink" x="0px" y="0px"
	 viewBox="0 0 512 512" style="enable-background:new 0 0 512 512;" xml:space="preserve">
<g>
	<title>anaconda</title>
	<g>
		<path d="M112.7,375.3c-16.9-1.7-33.8-4.9-50.3-9.4l-1.5-0.4l0.4-1.5c4.9-15.9,11.1-31.5,18.4-46.4l0.7-1.5l1.3,0.7
			c11.1,6.2,22.9,11.8,34.8,16.7l1.1,0.4l-0.2,1.1c-1.9,12.6-2.9,25.5-3.2,38.5v1.7L112.7,375.3z M149.1,147.9v-0.4
			c-9.8,0.2-19.5,0.7-29.1,1.8c1.1,10,3,19.7,5.1,29.3C131.9,167.4,139.9,157.1,149.1,147.9L149.1,147.9z M114.4,386.7v-1.3
			l-1.3-0.2c-14.3-1.3-28.8-3.7-43-7.2l-3.8-0.9l2.1,3.4c12.9,19.5,28.7,36.8,47,51.4l3,2.4l-0.6-3.7
			C115.7,415.7,114.6,400.8,114.4,386.7z M184.1,44c-17.5,6-34,14.1-49.2,24.1c11.4,2.1,22.9,4.7,34,8.1
			C173.4,65,178.5,54.5,184.1,44z M256.7,32c-8.7,0-17.1,0.6-25.5,1.5c11.8,8.2,23.3,17.2,34,27.2l9,8.3l-8.8,8.4
			c-7.3,7-14.3,14.5-21.1,22.5l-0.4,0.4c0,0-1.3,1.5-3.4,4c5.3-0.6,10.7-1,16.1-1c84.4,0,152.9,68.4,152.9,152.9
			c0,84.3-68.4,152.9-152.9,152.9c-29.3,0-56.7-8.3-79.8-22.5c-11.4,1.3-22.9,1.8-34.6,1.8c-5.4,0-10.7-0.2-16.1-0.4
			c0.4,17.5,2,35.3,4.9,54.1c35.9,24.3,79,38.5,125.6,38.5c124,0,224.3-100.4,224.3-224.2C481,132.5,380.7,32,256.7,32L256.7,32z
			 M227.1,84.9c4.5-5.2,9-10.4,13.7-15.4c-10.6-9-21.6-17.1-33.2-24.4c-7.2,11.9-13.4,24.6-18.6,37.3c10.1,3.7,19.9,8.1,29.7,12.8
			C222.9,89.5,226.1,86.1,227.1,84.9L227.1,84.9z M74.8,213l0.9,1.3l1.3-1c10.4-7.5,21.3-14.5,32.5-20.6l1.2-0.4l-0.5-1.3
			c-3.4-12.6-5.9-25.8-7.7-39.1l-0.2-1.5l-1.5,0.4c-16.5,3-33,7.5-48.8,13.1l-1.5,0.6l0.6,1.5C57.7,182.2,65.5,198,74.8,213z
			 M72.1,234.7l-1.3,0.9c-12,9.8-23.5,20.7-34,32.4l-1.1,1.1l1.1,0.9c11.7,10.1,24.3,19.5,37.4,27.8l1.3,1l0.7-1.3
			c5.8-10.6,12.6-20.9,19.7-30.8l0.7-1l-0.7-1c-8.3-9.2-16-18.8-23.1-28.9L72.1,234.7z M160.2,376l4-0.2l-3-2.5
			c-12-9.7-22.3-21.2-30.8-34.3v-0.4l-2.4-1.2l-0.4,2.1c-1.5,11.2-2.4,22.9-2.6,34.9v1.5h1.5c5.2,0.4,10.7,0.4,15.9,0.4
			C148.2,376.6,154.1,376.4,160.2,376L160.2,376z M152.7,128.3c2.4-11.1,5.4-22,9-32.7c-14.1-4-28.5-7-43-9
			c-1.3,14.7-1.5,29.3-0.6,43.8C129.6,129.1,141.3,128.5,152.7,128.3L152.7,128.3z M174.3,127.5c9.8-6.2,20.3-11.4,31.4-15.4
			c-7.9-3.5-15.8-6.9-24.1-9.9C178.8,110.5,176.4,119.1,174.3,127.5z M70.1,309.8l-1.2-0.8c-11.6-7.3-22.8-15.4-33.2-24l-3-2.5
			l0.6,4c2.8,21.7,8.8,42.5,17.6,62.4l1.5,3.6l1.3-3.6c4.3-12.8,9.8-25.4,15.8-37.4L70.1,309.8z M98.8,97
			c-13.3,13.3-25.2,28.2-34.7,44.5c11.6-3.4,23.3-6.2,35.1-8.3C98.4,121.2,98.3,109.2,98.8,97z M105.5,254.3l0.2-3.9
			c0.6-13.7,2.8-27.1,7-40l1.1-3.8l-3.4,1.9c-8.8,5.1-17.5,10.7-25.8,16.7l-1.3,0.9l0.9,1.3c5.9,8.3,12,16.4,18.7,24.1L105.5,254.3z
			 M107.1,277.3l-0.6-3.7l-2.2,3.4c-6.2,8.8-12,17.8-17.3,27.2l-0.7,1.3l1.3,0.7c9.4,5.3,19.3,10.1,29.3,14.5l3.6,1.5l-1.7-3.6
			C112.9,305.5,109,291.5,107.1,277.3L107.1,277.3z M63.3,223.7l1.2-1l-0.7-1.1c-7-11.3-13.4-23.1-19-35.1l-1.7-3.4l-1.1,3.8
			c-6.6,20.3-10.2,41.5-10.7,62.9l-0.2,4l2.9-2.9C43,241.2,53,231.8,63.3,223.7L63.3,223.7z"/>
	</g>
</g>
</svg>
